<svg width="20" height="41" viewBox="0 0 20 41" fill="none" xmlns="http://www.w3.org/2000/svg">
<path d="M5 13L5.3125 11H14.7422L15 13H5Z" fill="#FF5200"/>
<path d="M4 19L5 13H15L16 19H4Z" fill="#B93B00"/>
<path d="M7 7V3H13V7H7Z" fill="#B93B00"/>
<path d="M7 3L10 0L13 3H7Z" fill="#FF5200"/>
<path d="M1.5 34L3 26H17L18.3359 34H1.5Z" fill="#B93B00"/>
<path d="M3 26L4 19H16L17 26H3Z" fill="#D8E9FB"/>
<path d="M0 41L1.5 34H18.3333L20 41H0Z" fill="#D8E9FB"/>
<path d="M4 11V7H16V11H4Z" fill="#3E638C"/>
<path d="M12 24.9989H8V21.9989C8 21 8.5002 20 10 20C11.5 20 12 21 12 21.9989V24.9989Z" fill="#3F5B65"/>
</svg>
