<svg width="240" height="270" viewBox="0 0 240 270" fill="none" xmlns="http://www.w3.org/2000/svg">
<path d="M19.5 13C18 23.6667 12.7763 44.7698 4.37628 65.9698C-4.02372 87.1698 5.20964 79.1365 10.8763 73.9698C20.8763 71.8032 36.5763 70.5698 19.3763 82.9698C2.1763 95.3698 2.20964 112.47 4.37631 119.47C6.04297 126.47 10.3763 141.37 14.3763 144.97C19.3763 149.47 2.37631 141.47 10.8763 159.47C19.3763 177.47 19.3763 167.47 19.3763 194.47C19.3763 221.47 7.37631 195.97 10.8763 205.97C14.3763 215.97 20.8763 238.97 28.8763 235.97C36.8763 232.97 46.3763 226.47 38.8763 220.97C32.8763 216.57 33.3763 212.803 34.3763 211.47C38.8763 212.803 47.4763 216.57 45.8763 220.97C43.8763 226.47 38.8763 230.97 45.8763 238.47C51.4763 244.47 45.2096 245.303 41.3763 244.97C35.2096 247.803 25.1763 253.37 34.3763 252.97C43.5763 252.57 49.2096 249.137 50.8763 247.47C55.3763 251.97 64.0763 259.37 62.8763 252.97C61.3763 244.97 68.8763 266.97 76.3763 255.97C83.8763 244.97 92.8763 269.97 106.876 268.47C120.876 266.97 138.876 266.97 144.376 255.97C148.776 247.17 141.876 240.637 137.876 238.47C142.21 238.97 149.576 238.07 144.376 230.47C137.876 220.97 161.376 243.97 172.376 230.47C183.376 216.97 174.876 239.97 200.376 230.47C220.776 222.87 231.376 216.5 231.376 213.97C233.5 209.5 226.476 203.47 216.876 199.47C204.876 194.47 198.876 189.47 193.376 191.97C187.876 194.47 189.376 183.47 182.876 185.47C176.376 187.47 173.376 188.97 164.376 185.47C155.376 181.97 122.376 161.97 128.376 170.47C134.376 178.97 98.5 197 93.8763 199.47C90.0825 201.496 81.3763 193.47 88.8763 189.47C96.3763 185.47 120.876 183.641 120.876 176.97C120.876 170.47 117.376 153.97 104.376 159.47C91.3763 164.97 98.8763 176.97 93.8763 176.97C88.8763 176.97 96.3763 162.97 100.376 149.47C103.576 138.67 120.376 136.97 128.376 137.47C132.543 134.803 138.376 129.57 128.376 129.97C115.876 130.47 101.876 123.47 104.376 115.97C106.376 109.97 113.21 109.803 116.376 110.47C122.043 107.637 132.876 101.07 130.876 97.4698C128.376 92.9698 118.876 90.9698 112.876 92.9698C106.876 94.9698 118.876 90.9698 112.876 86.9698C106.876 82.9698 97.3763 73.9698 88.8763 73.9698C80.3763 73.9698 69.8763 82.9698 70.8763 82.9698C71.8763 82.9698 62.8763 76.9698 73.8763 71.4698C84.8763 65.9698 81.8763 60.4698 76.3763 65.9698C70.8763 71.4698 61.8763 51.9698 53.8763 52.9698C47.4763 53.7698 38.2096 55.9698 34.3763 56.9698C34.8763 49.4698 23.5 24 27.5 29.4698C32.5778 36.4136 44.5 48.9698 44.5 35.4698C44.5 21.9698 34.3763 28.4698 34.3763 19.4698C34.3763 10.4698 34.3763 -1.53015 28.8763 1.46985C24.4763 3.86985 19.5 9 19.5 13Z" stroke="white" stroke-width="2"/>
<path d="M165 24.0463C176 20.5463 184.5 21.5006 180.5 27.0006C178.167 34.8339 180.9 37.5917 202.5 17.1911C229.5 -8.30968 208.5 21.0006 218.5 13.5006C228.5 6.00058 236.5 18.0006 238.5 27.0006C240.5 36.0006 202 36.0006 218.5 49.0006C235 62.0006 230 66.0006 230.5 69.5006C231 73.0006 207 82.5006 197.5 76.0006C188 69.5006 179.5 58.5006 173 49.0006C166.5 39.5006 197.5 40.5006 183.5 38.5006C172.3 36.9006 163.5 43.1672 160.5 46.5006C158.833 49.6672 153.8 55.8006 147 55.0006C140.2 54.2006 145.5 46.6672 149 43.0006C151.5 37.5006 156.2 26.8463 165 24.0463Z" stroke="white" stroke-width="2"/>
</svg>
