<svg width="115" height="124" viewBox="0 0 115 124" fill="none" xmlns="http://www.w3.org/2000/svg">
<path d="M95 0L114.5 4.5V124H0V108L6.5 64.5L21.5 56.5V31L55 15.5L65.5 23.5L95 0Z" fill="#D8E9FB"/>
<path d="M95 0L114.5 4.5V27L95 0Z" fill="#9DAFC3"/>
<path d="M65.5 23.5L59 18.5L47 38.5L65.5 23.5Z" fill="#9DAFC3"/>
<path d="M21.5 56.5L14 60.5L24 95L21.5 56.5Z" fill="#9DAFC3"/>
<path d="M0 115V109.5H47.5L61.5 76L99.5 74L78 63L81.5 55.5L114.5 51V115H0Z" fill="#9DAFC3"/>
<path d="M0 124V115H114.5V124H0Z" fill="#5C7997"/>
</svg>
