<svg width="52" height="56" viewBox="0 0 52 56" fill="none" xmlns="http://www.w3.org/2000/svg">
<path d="M8.80646 0L7.62939e-06 2.03226V56H51.7097V48.7742L48.7742 29.129L42 25.5161V14L26.871 7L22.129 10.6129L8.80646 0Z" fill="#D8E9FB"/>
<path d="M8.80646 0L5.72205e-06 2.03226V12.1935L8.80646 0Z" fill="#9DAFC3"/>
<path d="M22.129 10.6135L25.0645 8.35547L30.4839 17.3877L22.129 10.6135Z" fill="#9DAFC3"/>
<path d="M42 25.5156L45.3871 27.3221L40.871 42.9027L42 25.5156Z" fill="#9DAFC3"/>
<path d="M51.7097 51.9364V49.4526H30.2581L23.9355 34.3235L6.7742 33.4203L16.4839 28.4526L14.9032 25.0655L7.62939e-06 23.0332V51.9364H51.7097Z" fill="#9DAFC3"/>
<path d="M51.7097 56.0001V51.9355H3.8147e-06V56.0001H51.7097Z" fill="#5C7997"/>
</svg>
