<svg width="288" height="296" viewBox="0 0 288 296" fill="none" xmlns="http://www.w3.org/2000/svg">
<path d="M118.5 243.501L86.5 234.501C72.8333 236.835 47.8 245.001 57 259.001C68.5 276.501 15.5 237.501 30 227.001C44.5 216.501 66 208.002 57 204.002C49.8 200.802 63.3333 189.668 71 184.502C72 162.335 76.5 118.001 86.5 118.001C99 118.001 118.5 75.5015 118.5 83.5015C118.5 91.5015 131 51.5008 137.5 55.5008C144 59.5008 165 57 179.5 64.5C191.1 70.5 226.333 61.0005 242.5 55.5008L286 29" stroke="#AED5FF" stroke-width="4" stroke-dasharray="8 8"/>
<path d="M45.5 294.501L31.5 266.501C14.8333 253.168 -12.1 224.001 13.5 214.001C45.5 201.501 29.9999 184.001 45.5 178.501C61 173.001 56 123.001 67.5 127.001C79 131.001 84 91.5003 100.5 82.5003C117 73.5003 105.5 32.5003 123.5 39.0003C137.9 44.2003 158.5 48.8338 167 50.5006C183 42.8337 217.1 29.8001 225.5 39.0003C233.9 48.2005 265 18.1669 279.5 2" stroke="white" stroke-width="4"/>
</svg>
