<svg width="314" height="271" viewBox="0 0 314 271" fill="none" xmlns="http://www.w3.org/2000/svg">
<path d="M256.104 1C253.597 7.41234 249.637 20.7866 253.848 22.9852C258.059 25.1837 260.365 37.9473 260.992 44.0543C258.987 52.9094 256.179 70.8029 260.992 71.5357C267.008 72.4518 273.776 95.811 280.544 85.2765C285.958 76.8488 295.083 66.1921 298.968 61.9172L311 44.0543" stroke="white" stroke-width="5"/>
<path d="M2 232.995C3.80261 232.188 7.40784 229.702 7.40784 226.216C7.40784 221.857 15.2738 239.775 17.2403 232.995C19.2068 226.216 25.5979 240.744 26.0895 228.153C26.5811 215.562 42.8046 238.807 37.8884 238.322C32.9722 237.838 52.6371 238.806 45.2627 242.681C37.8884 246.555 64.9276 247.039 64.436 242.681C63.9444 238.322 75.7433 252.366 76.2349 242.681C76.7265 232.995 89.5087 265.441 93.9333 258.661C97.473 253.238 103.274 256.401 105.732 258.661C111.468 261.89 123.234 267.378 124.414 263.504C125.889 258.661 142.604 273.189 150.961 265.925C159.319 258.661 162.269 242.196 157.844 232.995C153.42 223.794 152.928 223.794 148.012 214.593C144.079 207.232 163.088 202.487 173.084 201.034C174.232 200.065 178.591 198.709 186.85 201.034C197.174 203.939 188.325 191.832 207.498 189.895C226.671 187.958 216.347 187.474 224.213 192.316C230.506 196.19 233.39 181.985 234.046 174.398C234.865 171.008 239.847 164.132 253.219 163.744C266.591 163.357 274.85 144.858 277.308 135.657C280.094 128.877 283.994 113.768 277.308 107.57C268.951 99.8213 266.984 90.6203 248.303 84.8091C233.357 80.1602 239.781 58.9817 244.861 48.9736C243.55 40.9025 237.585 27.1817 224.213 36.867C210.841 46.5523 199.632 43.4853 195.699 40.7411C186.194 33.9614 168.365 19.5304 173.084 16.0437C177.804 12.557 172.757 5.22843 169.643 2" stroke="white" stroke-width="5"/>
<path d="M11 214.571C23.534 216.762 49.6359 218.891 53.7721 209.875C58.9424 198.605 75.8632 171.369 70.2229 156.811C64.5826 142.254 121.925 118.775 126.626 121.592C131.326 124.41 143.547 107.036 167.988 110.792C192.429 114.549 200.419 106.096 199.479 101.87C198.539 97.6432 231.911 83.5555 240.841 87.7818C247.986 91.1629 249.145 98.5824 248.832 101.87C253.845 102.966 264.061 106.285 264.813 110.792C265.753 116.426 263.402 151.176 252.122 149.298C243.097 147.795 232.068 153.681 227.681 156.811C224.234 163.855 215.93 177.849 210.29 177.473C203.24 177.003 183.029 179.821 182.558 184.986C182.088 190.152 148.247 192.969 147.307 196.726C146.367 200.483 134.616 191.091 134.146 205.179C133.77 216.449 142.763 227.406 147.307 231.476C147.933 243.842 146.931 265.192 137.906 251.668C126.626 234.763 107.825 250.259 90.904 237.111C77.3673 226.592 66.7761 226.467 63.1726 227.719C53.9288 226.78 35.8172 223.868 37.3213 219.736C38.8254 215.604 20.4005 214.571 11 214.571Z" stroke="#AED5FF" stroke-width="4" stroke-dasharray="8 8"/>
</svg>
