<svg width="287" height="280" viewBox="0 0 287 280" fill="none" xmlns="http://www.w3.org/2000/svg">
<path d="M132 231L144 215.5V201.5C125.5 175.5 156.4 184.2 144 173C128.5 159 108 140.5 95 147C82 153.5 70.5 133 68 131C66 129.4 43.8334 113 33 105C18 102.167 -6.09997 95.4001 17.5 91.0001C47 85.5001 79.5 91.0001 75.5 77.0001C71.5 63.0001 101 59.0001 101 63.5001C101 67.1001 109.333 83.3334 113.5 91.0001C128.667 90.8334 158.2 92.4 155 100C151 109.5 167 133.5 173 131C179 128.5 218.5 112.5 218.5 126C218.5 139.5 275.5 124.5 279 134.5" stroke="#AED5FF" stroke-width="4" stroke-dasharray="8 8"/>
<path d="M37.9999 279.5C38.4999 269.666 45.5999 250.3 69.9999 251.5C100.5 253 46.9999 225.499 102 207.999C157 190.499 115 175.999 102 179.999C88.9999 183.999 67.9999 141.999 61.9999 137.999C57.1999 134.799 24.3332 114.333 8.49989 104.499C2.99989 95.4995 -3.40011 77.7995 14.9999 78.9995C33.3999 80.1995 59.3332 67.4998 69.9999 61C79.3333 52.6667 95.2001 33.4 84 23C72.7999 12.6 79.3333 5 84 2.5C101 16.0002 132.7 46.6004 123.5 61C114.3 75.3996 144.333 84.9998 160.5 88C162.5 96 169.9 113.3 183.5 118.5C200.5 125 236 90.4989 250 104.499C261.2 115.7 279.333 118.5 287 118.5" stroke="white" stroke-width="4"/>
</svg>
