<svg width="63" height="71" viewBox="0 0 63 71" fill="none" xmlns="http://www.w3.org/2000/svg">
<path d="M25.7915 5.98566C25.4199 5.87427 25.0364 5.76221 24.643 5.65031M24.643 5.65031C15.1746 2.95718 -0.0241794 0.360536 7.0329 9.47628C16.2208 21.3444 12.0097 24.1369 5.11875 27.9766C-1.77214 31.8162 -1.00649 67.0715 15.0723 51.7128C27.9353 39.4258 31.4063 50.3165 31.5339 57.2978C33.5756 68.5841 41.1811 82.6397 55.2692 48.5712C72.8793 5.98566 50.6752 14.0141 47.9955 26.2312C45.3157 38.4484 19.2834 41.2409 29.2369 26.2312C39.1904 11.2216 59.0975 14.7122 44.1672 4.24033C29.2369 -6.23153 42.253 12.6453 24.643 5.65031Z" stroke="#AED5FF" stroke-width="2" stroke-dasharray="4 4"/>
</svg>
