<svg width="380" height="367" viewBox="0 0 380 367" fill="none" xmlns="http://www.w3.org/2000/svg">
<path d="M87.3214 190.001C99.8554 192.192 99.636 199.017 103.772 190.001C108.942 178.73 143.64 191.031 138 176.474C132.36 161.916 155.626 187.273 171 176.474C186.374 165.674 178.559 83.0257 203 86.7824C227.441 90.5391 253.607 102.176 249.479 100.87C232.559 95.5173 251.36 110.774 260.29 115C267.434 118.381 277.994 125.213 277.681 128.5C282.694 129.596 282.89 116.37 287.5 144C288.44 149.634 294.281 157.69 283 155.812C273.976 154.309 282.068 152.681 277.681 155.812C274.234 162.856 265.93 176.849 260.29 176.474C253.24 176.004 255.97 191.835 255.5 197C255.03 202.165 318.502 237.287 314.813 236.111C260.29 218.737 249.949 216.389 249.479 230.476C249.103 241.746 210.5 230.476 197.307 230.476C197.934 242.842 180.025 280.525 171 267.001C159.72 250.095 154.921 262.149 138 249.001C124.463 238.482 103.772 279.781 103.772 249.001C94.3718 271.281 111.085 218.737 87.3214 218.737C67.5 218.737 96.7219 190.001 87.3214 190.001Z" stroke="#AED5FF" stroke-width="4" stroke-dasharray="8 8"/>
<path d="M36.497 110.5C38.0101 111.769 33.358 150.907 36.495 149.385C40.4162 147.482 46.1831 144.727 53.1412 143.537C60.0993 142.347 49.8182 154.439 61.3608 149.385C72.9033 144.331 59.072 169.074 57.3617 164.439C55.6514 159.805 63.3642 177.92 56.6596 172.977C49.9551 168.033 36.4951 208.277 65.0291 190.227C65.0291 190.227 37.56 223.959 46.4885 220.174C55.4169 216.388 53.3296 226.471 61.3607 227.492C67.7855 228.309 69.6379 231.159 68.6777 234.357C68.2767 240.926 62.4944 264.122 66.4949 263.492C71.4957 262.705 71.702 273.872 81.8856 278.22C92.0692 282.568 108.17 278.035 114.517 270.038C120.864 262.041 119.363 295.177 125.495 286.737C130.401 279.986 144.255 261.438 149.925 269.798C135.495 295.897 154.42 273.737 155.934 282.182C157.827 292.739 164.857 279.493 174.969 295.897C185.081 312.302 184.418 277.546 183.495 286.737C182.756 294.09 196.883 298.619 203.995 295.897C207.403 295.155 214.309 258.176 220.495 270.038C226.681 281.9 247.644 265.297 256.995 263.492C264.311 263.039 284.668 272.213 287.326 263.492C290.649 252.591 311.422 278.837 308.495 259.492C306.154 244.017 306.843 267.796 318.065 267.998C324.754 263.296 348.046 257.795 333.495 249.992C318.944 242.189 371.479 220.814 341.995 213.495C343.946 201.985 316.913 195.659 341.995 190.226C367.633 184.673 340.452 177.185 341.997 172.975" stroke="white" stroke-width="5"/>
</svg>
